<?xml version="1.0" standalone="no"?>
<!DOCTYPE svg PUBLIC "-//W3C//DTD SVG 20010904//EN"
 "http://www.w3.org/TR/2001/REC-SVG-20010904/DTD/svg10.dtd">
<svg version="1.0" xmlns="http://www.w3.org/2000/svg"
 width="400.000000pt" height="400.000000pt" viewBox="0 0 400.000000 400.000000"
 preserveAspectRatio="xMidYMid meet">
<metadata>
Created by potrace 1.11, written by Peter Selinger 2001-2013
</metadata>
<g transform="translate(0.000000,400.000000) scale(0.100000,-0.100000)"
fill="#000000" stroke="none">
<path d="M2887 3439 c-10 -13 -15 -18 -12 -11 8 15 -11 16 -21 1 -4 -8 -9 -7
-16 2 -8 11 -9 11 -5 -1 2 -8 -2 -29 -10 -47 -15 -37 -17 -56 -4 -51 16 6 92
109 89 120 -2 6 -12 0 -21 -13z"/>
<path d="M3000 3434 c0 -14 -2 -15 -17 -3 -16 12 -17 12 -6 -2 7 -8 10 -26 7
-40 -7 -31 -11 -59 -13 -86 -1 -14 -9 -23 -23 -25 -17 -2 -22 -9 -20 -25 5
-34 -8 -28 -62 24 -41 39 -50 44 -57 31 -11 -19 2 -58 25 -77 9 -7 20 -30 26
-50 10 -39 112 -147 128 -137 5 3 18 -1 28 -9 10 -8 14 -15 7 -15 -6 0 -14 4
-18 10 -3 5 -12 7 -21 3 -8 -3 -26 5 -40 18 -21 20 -27 21 -34 9 -8 -13 -10
-12 -10 3 0 10 -11 35 -25 55 -14 20 -25 46 -25 58 0 12 -7 28 -17 35 -15 13
-15 12 -4 -9 15 -28 7 -72 -14 -72 -8 0 -20 10 -26 22 -6 12 -20 30 -30 41
-22 24 -52 114 -44 135 4 12 3 13 -10 2 -12 -10 -15 -10 -15 1 0 8 -8 24 -18
37 l-18 23 2 -28 c1 -15 3 -28 4 -28 1 0 4 -9 5 -20 1 -11 14 -38 29 -59 26
-39 34 -90 16 -101 -5 -3 -15 -15 -21 -27 -6 -11 -7 -18 -2 -15 5 3 23 -1 39
-9 18 -10 24 -10 17 -3 -15 15 -18 53 -4 44 5 -3 17 -27 26 -53 24 -67 47
-112 58 -112 5 0 28 -20 51 -45 24 -25 48 -45 54 -45 7 0 12 -4 12 -10 0 -22
-30 -8 -64 30 -20 22 -40 40 -44 40 -12 0 -58 73 -66 106 l-7 28 -23 -29 c-19
-23 -26 -26 -42 -17 -12 6 -26 7 -34 2 -9 -5 -20 -4 -28 3 -11 9 -13 6 -11
-18 2 -17 8 -36 13 -43 5 -8 13 -35 17 -60 19 -119 23 -134 36 -139 12 -5 12
-7 1 -14 -19 -13 -28 -11 -28 6 0 9 -9 15 -21 15 -20 0 -20 0 3 -29 13 -17 28
-30 34 -30 10 -1 24 -22 24 -37 0 -14 -117 94 -127 118 -7 15 -19 28 -28 28
-20 0 -19 -37 1 -48 10 -5 14 -15 10 -21 -6 -9 -11 -9 -21 -1 -9 8 -14 7 -18
-4 -3 -8 1 -20 8 -26 13 -10 11 -16 -8 -41 -18 -23 -30 -28 -69 -28 -42 -1
-51 3 -80 35 -65 70 -51 157 30 191 50 21 115 67 85 60 -25 -6 -29 3 -11 21
22 22 -5 13 -29 -10 -13 -12 -23 -16 -23 -10 0 7 5 12 10 12 6 0 10 6 10 12 0
7 -25 -14 -56 -47 -60 -65 -104 -140 -104 -179 0 -34 -60 -55 -94 -33 -21 14
-25 13 -64 -21 -22 -20 -50 -55 -61 -77 -12 -22 -21 -33 -21 -24 0 18 46 84
79 113 11 11 21 22 21 27 0 4 -25 15 -56 25 l-57 18 -21 -27 -22 -27 -19 23
c-11 12 -17 18 -12 13 4 -6 7 -17 7 -25 0 -11 -6 -9 -20 9 l-20 25 6 -32 c6
-28 4 -31 -19 -30 -20 2 -23 5 -16 18 5 10 3 23 -6 35 -8 11 -15 27 -15 37 0
14 -5 17 -22 12 l-23 -6 22 19 c19 17 20 22 8 32 -11 9 -19 2 -40 -40 -26 -51
-26 -53 -8 -73 17 -21 17 -21 0 -7 -16 12 -20 12 -27 0 -7 -12 -13 -10 -33 8
-13 12 -27 19 -30 15 -10 -10 -8 -25 2 -18 5 3 13 0 16 -6 5 -7 -1 -9 -16 -7
-18 2 -24 10 -26 31 -2 31 -3 30 30 18 20 -8 27 -6 31 5 5 12 1 14 -15 9 -15
-5 -19 -4 -15 4 4 6 15 11 25 11 10 0 25 17 38 44 l21 43 -35 35 -36 36 19 26
c11 14 26 26 35 26 8 0 36 14 62 31 42 28 46 33 42 65 -5 35 10 48 18 17 4
-14 5 -12 6 5 1 13 -5 22 -13 22 -17 0 -21 -5 -30 -43 -5 -21 -4 -27 5 -21 8
4 9 3 5 -4 -4 -7 -12 -12 -18 -12 -5 0 -21 -9 -35 -20 -29 -22 -61 -26 -60 -7
2 55 -12 57 -39 5 -12 -23 -13 -32 -4 -38 9 -5 9 -9 1 -14 -6 -4 -11 -2 -11 4
0 7 -14 0 -31 -14 -35 -30 -62 -35 -52 -9 4 10 2 14 -4 10 -6 -4 -10 -23 -9
-42 3 -38 -7 -46 -23 -17 -10 19 -11 23 -11 56 0 19 -7 25 -37 31 -56 12 -73
12 -67 4 2 -4 0 -10 -6 -14 -5 -3 -10 -11 -10 -17 0 -6 7 -5 18 3 13 11 12 8
-3 -11 -34 -42 -46 -50 -139 -90 -54 -24 -91 -20 -99 10 -3 11 -11 20 -17 20
-7 0 -10 -7 -6 -16 7 -19 -14 -84 -27 -84 -5 0 -4 -7 3 -15 19 -22 4 -31 -30
-18 -17 6 -30 7 -30 2 0 -5 11 -11 25 -15 14 -3 25 -13 25 -21 0 -8 -3 -12 -8
-9 -4 2 -7 -10 -6 -27 2 -52 -14 -93 -43 -112 -23 -15 -25 -15 -20 -2 3 9 2
30 -4 46 -7 20 -7 47 1 88 7 32 13 66 14 76 1 10 7 22 12 25 5 4 9 14 9 22 -2
20 15 53 34 67 9 6 13 15 8 19 -4 4 -7 2 -7 -4 0 -7 -11 -12 -25 -12 -20 0
-25 -6 -30 -37 -4 -21 -11 -50 -16 -64 -6 -14 -12 -42 -13 -61 -2 -19 -11 -52
-20 -72 -9 -20 -23 -52 -32 -72 -9 -20 -18 -48 -19 -63 -2 -14 -8 -44 -13 -67
-5 -22 -5 -49 -1 -60 4 -10 8 -36 8 -56 1 -21 4 -38 9 -38 4 0 6 20 4 45 l-4
45 41 0 c38 0 42 -3 47 -28 6 -28 7 -29 52 -21 101 16 125 18 116 9 -10 -10
-82 -30 -136 -37 -24 -3 -38 -10 -38 -20 0 -8 -4 -11 -10 -8 -22 14 -8 -16 15
-31 16 -11 34 -14 55 -9 33 7 39 -1 13 -20 -12 -9 -27 -9 -55 -2 -42 10 -63
37 -53 67 7 24 -2 26 -24 6 -22 -20 -51 2 -60 45 -7 33 6 160 19 194 18 43 50
153 54 185 1 8 8 28 14 43 7 16 10 32 7 36 -2 5 4 25 15 46 17 33 18 41 6 70
-24 57 10 166 66 208 50 38 79 70 70 79 -13 13 -44 -2 -38 -18 3 -7 0 -16 -6
-20 -6 -4 -8 -3 -4 4 3 6 2 13 -3 16 -12 8 -56 -52 -77 -103 -9 -22 -19 -40
-22 -39 -27 3 -62 -4 -62 -13 0 -11 -25 -39 -35 -39 -3 0 -4 4 -1 9 10 15 -6
43 -20 37 -11 -4 -11 -1 1 18 14 20 14 27 0 60 -17 40 -13 86 10 119 7 9 10
29 7 44 -5 25 -5 25 -24 -13 -17 -34 -26 -107 -18 -139 9 -36 -3 -68 -40 -104
-42 -41 -48 -58 -27 -81 10 -12 9 -12 -6 -1 -16 13 -17 11 -13 -37 4 -36 2
-51 -8 -55 -8 -3 -16 -30 -19 -66 -4 -34 -16 -80 -27 -103 -41 -85 -11 -234
41 -202 5 3 9 -2 9 -10 0 -9 6 -16 14 -16 8 0 17 -6 19 -12 4 -10 6 -10 6 0 1
6 6 12 12 12 7 0 9 -12 7 -30 -3 -17 -1 -33 4 -36 11 -7 10 -24 -1 -24 -6 0
-18 13 -27 29 -20 34 -34 32 -34 -7 0 -20 -3 -23 -12 -14 -10 10 -10 19 -1 43
7 18 9 29 6 25 -3 -3 -12 -1 -18 4 -8 7 -18 3 -31 -13 l-19 -22 23 19 c27 23
29 13 3 -20 -11 -15 -17 -35 -15 -54 4 -37 52 -140 64 -140 5 0 7 -6 4 -13 -3
-9 9 -17 33 -24 l38 -10 -40 1 c-22 1 -53 10 -68 20 -18 12 -31 16 -38 9 -6
-6 4 -18 28 -34 27 -18 37 -31 36 -47 -2 -12 3 -23 10 -23 6 -1 -6 -5 -28 -9
-28 -6 -54 -3 -85 8 -62 21 -120 24 -120 5 0 -17 63 -45 94 -42 11 1 29 -1 38
-5 10 -5 37 -1 62 9 28 11 56 15 73 11 15 -4 44 -11 63 -15 l35 -9 -30 -1
c-29 -1 -28 -3 25 -34 l55 -32 -45 -5 c-25 -3 -43 -9 -42 -14 6 -15 -20 -24
-61 -21 -30 3 -37 1 -28 -8 15 -15 82 -10 102 9 18 17 68 10 70 -10 1 -6 4 0
8 13 4 14 12 26 19 29 7 2 10 -2 6 -12 -8 -20 15 -21 61 -2 39 16 40 19 25 47
-15 27 -5 24 28 -11 27 -28 31 -29 68 -19 21 6 51 18 66 25 15 8 31 14 34 13
4 0 10 5 14 11 4 7 16 10 26 8 14 -3 5 -11 -31 -28 -27 -13 -53 -22 -57 -22
-5 1 -8 -2 -8 -7 0 -14 49 -22 69 -12 31 17 101 39 96 31 -3 -5 -22 -14 -43
-21 -20 -6 -46 -19 -57 -28 -33 -27 -65 -42 -65 -31 0 5 4 10 9 10 5 0 12 8
15 17 4 10 4 14 0 10 -4 -4 -13 -2 -20 4 -14 11 -74 3 -74 -10 0 -10 31 -37
50 -44 12 -4 12 -6 -2 -6 -10 -1 -33 15 -52 34 -20 19 -37 35 -39 35 -3 0 -25
-9 -51 -21 -25 -11 -50 -18 -55 -15 -5 3 -15 -2 -22 -11 -8 -9 -27 -24 -44
-35 -17 -10 -23 -18 -14 -18 8 0 28 13 43 29 32 33 62 31 69 -5 2 -14 2 -22
-1 -19 -9 9 -31 -16 -26 -29 3 -8 -5 -16 -21 -20 -15 -4 -23 -11 -19 -18 5 -7
2 -8 -11 -1 -13 8 -29 4 -62 -15 -24 -13 -42 -26 -40 -28 5 -6 67 19 67 27 0
4 9 5 20 2 17 -5 15 -8 -16 -30 -20 -13 -50 -26 -68 -29 -60 -11 -63 -14 -38
-35 18 -14 28 -16 42 -9 10 6 27 10 36 10 10 0 36 18 59 39 40 39 71 54 77 37
2 -5 -5 -13 -14 -17 -10 -5 -26 -13 -35 -18 -10 -4 -18 -19 -18 -32 0 -18 5
-23 20 -21 11 2 45 6 75 8 32 3 61 11 70 21 14 14 12 15 -17 11 -18 -3 -33 -4
-33 -3 0 11 126 85 137 81 8 -3 23 3 35 14 28 26 68 38 98 29 14 -4 20 -7 13
-8 -7 -1 -10 -8 -7 -16 4 -8 1 -15 -5 -15 -6 0 -11 7 -11 15 0 12 -7 14 -27 9
-38 -9 -39 -11 -14 -33 l22 -19 -30 -7 c-17 -4 -33 -11 -36 -16 -4 -5 -13 -9
-21 -9 -8 0 -13 4 -10 9 7 11 -3 41 -13 41 -4 0 -7 -10 -7 -22 1 -13 -4 -22
-11 -21 -6 1 -28 -18 -48 -42 -20 -25 -43 -45 -51 -45 -8 0 -14 -5 -14 -11 0
-6 9 -9 20 -6 26 7 26 -14 0 -31 -23 -14 -27 -42 -5 -42 18 0 55 30 55 45 1
16 48 70 56 62 4 -3 1 -13 -5 -21 -18 -21 -2 -26 77 -22 63 3 70 1 62 -13 -17
-32 -90 -100 -103 -96 -6 3 -23 -4 -36 -14 -19 -15 -21 -21 -12 -37 6 -10 20
-44 31 -74 11 -30 26 -62 33 -70 15 -18 87 -55 105 -53 7 0 11 -1 8 -4 -10
-10 15 -43 45 -58 16 -9 27 -20 23 -26 -3 -6 1 -18 9 -27 8 -9 19 -34 22 -55
5 -28 14 -41 31 -47 13 -5 24 -12 24 -14 0 -3 -7 -3 -15 0 -25 10 -17 -11 20
-49 19 -20 35 -43 35 -51 0 -8 5 -16 12 -18 15 -5 -19 -58 -37 -58 -8 0 -21
-7 -29 -16 -9 -8 -16 -13 -16 -10 0 4 -22 -5 -48 -18 -45 -23 -49 -23 -59 -7
-11 18 -83 24 -99 8 -12 -11 16 -27 48 -27 15 0 30 -4 33 -10 10 -15 35 -12
83 11 32 16 46 19 55 10 14 -14 70 -14 84 0 15 15 50 -10 116 -80 44 -48 46
-51 23 -51 -17 0 -36 13 -58 41 -36 45 -83 75 -93 59 -6 -9 1 -14 17 -11 4 0
5 -5 2 -12 -3 -8 12 -25 34 -40 90 -63 140 -148 96 -163 -11 -4 -27 -14 -37
-22 -15 -13 -23 -13 -56 -2 -22 7 -47 10 -55 7 -10 -4 -16 -1 -16 7 0 15 -115
76 -142 76 -19 0 -17 -28 3 -42 11 -8 11 -9 -3 -5 -9 3 -19 -1 -22 -9 -9 -22
-9 -22 25 -39 30 -16 30 -16 19 5 -6 11 -15 18 -20 15 -5 -3 -11 -1 -14 4 -6
9 39 21 81 21 15 0 39 -14 59 -34 19 -19 41 -36 50 -38 29 -6 19 -23 -16 -26
-29 -2 -38 2 -55 28 -11 16 -25 30 -31 30 -6 0 -17 7 -24 15 -19 23 -31 18
-19 -9 6 -13 21 -27 33 -30 16 -5 18 -8 7 -15 -9 -6 -10 -10 -2 -16 8 -4 3
-14 -14 -27 -34 -26 -25 -34 15 -13 25 13 30 21 25 38 -6 22 -6 22 10 2 14
-18 14 -21 -7 -38 l-23 -19 32 6 c25 4 36 1 46 -14 8 -11 17 -17 22 -12 4 4 6
0 2 -10 -13 -36 48 -57 143 -47 8 0 60 -11 115 -27 55 -15 120 -27 144 -27 40
0 42 -1 25 -14 -19 -14 -19 -15 0 -29 25 -18 31 -18 51 2 11 11 14 25 10 45
-4 18 -2 29 4 29 6 0 11 -10 11 -22 1 -23 1 -23 13 -3 7 12 45 52 85 90 72 69
72 70 45 75 -18 4 -45 -2 -75 -17 -46 -23 -173 -40 -182 -24 -3 4 22 8 55 9
62 3 139 27 139 44 0 6 7 8 15 4 8 -3 15 -1 15 5 0 6 9 8 20 4 12 -4 27 -1 35
5 8 7 49 14 91 16 63 4 79 8 95 27 10 12 16 28 14 35 -3 7 -1 11 4 8 5 -3 14
1 21 9 10 12 10 18 1 29 -14 16 1 56 20 56 19 0 48 44 43 65 -4 16 -3 17 5 5
8 -12 13 -8 26 22 18 43 19 58 5 58 -5 0 -10 -4 -10 -8 0 -13 -58 -77 -64 -71
-3 3 10 23 29 45 25 27 35 46 32 61 -5 28 -3 28 19 5 16 -15 17 -15 12 0 -4 9
2 38 12 65 11 26 31 88 46 137 22 75 26 100 20 160 -7 76 -41 157 -97 227 -16
20 -29 39 -29 42 0 2 23 3 50 2 59 -3 61 8 10 43 -18 12 -28 22 -23 22 6 0 28
-12 49 -26 l38 -26 65 21 c65 22 161 77 161 93 0 5 -5 6 -12 2 -7 -5 -8 -3 -4
5 5 7 10 10 13 7 11 -11 67 39 124 111 64 80 73 100 37 83 -14 -7 -10 -1 10
15 28 23 62 72 62 90 0 3 -12 -2 -27 -12 -22 -13 -20 -9 10 19 20 20 37 44 38
54 0 11 3 28 5 39 3 11 7 40 10 65 l5 45 -20 -23 c-19 -22 -49 -23 -35 -1 3 5
10 7 15 4 5 -4 9 3 9 14 0 11 4 22 9 25 14 9 20 45 7 40 -6 -2 -25 9 -41 26
-28 29 -29 32 -12 44 9 7 17 20 17 28 0 9 7 21 15 28 23 19 18 150 -6 150 -4
0 -20 -17 -35 -37 -21 -31 -24 -33 -19 -13 4 14 14 32 23 40 27 24 41 66 35
104 -3 20 -9 36 -12 36 -4 0 -5 15 -3 34 7 62 0 72 -27 35 -13 -17 -19 -29
-13 -25 5 3 13 -1 16 -10 5 -12 1 -14 -15 -9 -16 6 -27 0 -44 -21 -13 -16 -26
-26 -30 -23 -6 7 90 142 106 147 5 2 9 20 9 40 l-1 37 -25 -30 c-15 -16 -44
-50 -65 -74 -21 -24 -39 -47 -39 -51 0 -4 -9 -15 -20 -25 -18 -16 -20 -16 -20
-2 0 10 9 26 20 37 11 11 20 24 20 28 0 5 27 34 60 66 57 56 60 60 60 107 0
40 -3 49 -18 49 -23 0 -62 -28 -62 -44 0 -8 -6 -19 -14 -26 -8 -6 -12 -19 -9
-27 4 -10 2 -14 -5 -10 -6 4 -13 -1 -15 -10 -3 -12 -5 -9 -6 8 0 15 6 33 15
40 11 9 14 23 11 46 -6 34 6 46 17 17 5 -14 9 -13 32 5 14 11 32 17 40 14 10
-4 14 2 14 21 0 14 -5 26 -11 26 -5 0 -7 5 -3 11 3 6 -6 23 -21 39 -32 33 -27
49 32 100 43 38 76 79 52 65 -8 -5 -21 -14 -29 -22 -39 -34 -79 -63 -87 -63
-21 0 -45 -39 -38 -60 6 -19 4 -21 -17 -15 -26 8 -65 41 -79 67 -17 32 -20
116 -4 160 8 24 15 55 15 71 0 19 5 27 18 27 16 1 16 1 -1 11 -9 6 -15 14 -12
19 3 5 1 11 -5 15 -5 3 -10 -1 -10 -11z m-135 -193 c5 -11 2 -11 -17 1 -12 8
-24 20 -26 27 -6 18 36 -9 43 -28z m101 -47 c0 -18 -3 -34 -8 -34 -4 0 -8 19
-8 42 0 49 14 43 16 -8z m-254 -66 c-7 -7 -12 -8 -12 -2 0 6 3 14 7 17 3 4 9
5 12 2 2 -3 -1 -11 -7 -17z m411 -13 c-3 -9 -8 -14 -10 -11 -3 3 -2 9 2 15 9
16 15 13 8 -4z m-103 -51 c0 -8 -4 -12 -10 -9 -5 3 -10 10 -10 16 0 5 5 9 10
9 6 0 10 -7 10 -16z m154 -36 c-3 -5 -14 2 -25 16 -27 34 -24 44 6 16 13 -12
22 -27 19 -32z m-99 -37 c-6 -6 -16 4 -27 27 l-17 36 26 -27 c17 -17 24 -30
18 -36z m-375 24 c10 -12 10 -15 -4 -15 -9 0 -16 7 -16 15 0 8 2 15 4 15 2 0
9 -7 16 -15z m10 -91 c0 -3 -9 0 -20 6 -11 6 -18 16 -14 21 3 6 -2 19 -11 29
-9 10 -14 24 -10 30 5 8 55 -69 55 -86z m260 73 c-27 -15 -36 -14 -25 2 3 6
16 11 28 11 21 0 21 -1 -3 -13z m-1432 -37 c-7 -11 -16 -20 -20 -20 -5 0 -3 9
4 20 7 11 16 20 20 20 5 0 3 -9 -4 -20z m-558 -1 c0 -5 -9 -9 -19 -9 -11 0
-22 4 -25 9 -3 5 6 9 19 9 14 0 25 -4 25 -9z m713 -4 c-3 -9 -8 -14 -10 -11
-3 3 -2 9 2 15 9 16 15 13 8 -4z m1047 -25 c0 -5 -2 -10 -4 -10 -3 0 -8 5 -11
10 -3 6 -1 10 4 10 6 0 11 -4 11 -10z m-1740 -18 c0 -5 -3 -12 -7 -16 -5 -4
-9 -12 -9 -17 -1 -5 -2 -10 -4 -11 -2 -3 -2 -7 -19 -97 -14 -72 -24 -79 -16
-11 7 63 35 160 47 160 4 0 8 -4 8 -8z m455 -9 c-14 -34 -14 -67 1 -87 8 -11
13 -41 13 -66 l-1 -45 -8 48 c-5 27 -14 55 -21 63 -10 13 -14 10 -27 -16 l-15
-31 -18 27 c-9 15 -15 34 -11 42 4 11 1 13 -9 7 -11 -6 -12 -5 -2 5 7 8 21 15
30 16 10 2 27 14 38 28 23 29 40 34 30 9z m243 -8 c-3 -3 -9 2 -12 12 -6 14
-5 15 5 6 7 -7 10 -15 7 -18z m-96 -50 c-18 -20 -32 -32 -32 -27 0 5 9 17 21
28 14 13 18 25 14 44 -6 24 -5 24 11 8 16 -16 15 -19 -14 -53z m1379 51 c-6
-7 -8 -22 -4 -31 5 -14 3 -16 -7 -10 -10 6 -12 4 -7 -8 3 -8 -1 -21 -9 -27
-10 -9 -14 -9 -14 -1 0 6 6 11 13 12 9 0 9 2 0 5 -7 3 -9 13 -6 22 6 18 33 52
41 52 2 0 -1 -6 -7 -14z m-1633 -23 c-30 -31 -48 -72 -48 -109 0 -13 -4 -24
-9 -24 -5 0 -14 -20 -20 -44 -6 -25 -16 -48 -21 -51 -15 -9 -7 33 13 71 9 17
13 34 10 37 -3 4 -2 12 3 19 6 7 16 31 23 53 8 21 23 47 35 57 33 27 43 21 14
-9z m165 5 c12 -7 36 -11 52 -9 l30 3 -24 -26 c-25 -27 -41 -33 -41 -17 0 5 8
12 18 14 10 3 6 5 -10 6 -16 0 -28 6 -28 11 0 6 -7 10 -16 10 -8 0 -13 -4 -9
-9 3 -5 1 -12 -5 -16 -11 -7 -13 5 -4 29 7 19 9 19 37 4z m1207 -8 c0 -5 -2
-10 -4 -10 -3 0 -8 5 -11 10 -3 6 -1 10 4 10 6 0 11 -4 11 -10z m-1790 -10 c0
-5 -4 -10 -10 -10 -5 0 -10 5 -10 10 0 6 5 10 10 10 6 0 10 -4 10 -10z m781
-13 c-1 -12 -15 -9 -19 4 -3 6 1 10 8 8 6 -3 11 -8 11 -12z m1419 9 c0 -3 -4
-8 -10 -11 -5 -3 -10 -1 -10 4 0 6 5 11 10 11 6 0 10 -2 10 -4z m-280 -22 c0
-8 -4 -12 -10 -9 -5 3 -10 10 -10 16 0 5 5 9 10 9 6 0 10 -7 10 -16z m-143
-36 c-3 -8 -6 -5 -6 6 -1 11 2 17 5 13 3 -3 4 -12 1 -19z m338 2 c-3 -5 -13
-10 -21 -10 -8 0 -12 5 -9 10 3 6 13 10 21 10 8 0 12 -4 9 -10z m-1415 -21 c0
-6 -4 -7 -10 -4 -5 3 -10 11 -10 16 0 6 5 7 10 4 6 -3 10 -11 10 -16z m1219
14 c-4 -22 4 -32 30 -43 33 -13 43 -30 30 -51 -8 -14 -10 -12 -13 14 0 6 -18
20 -38 30 -46 23 -50 44 -10 56 1 1 1 -2 1 -6z m310 -41 c-19 -20 -35 -39 -36
-41 -2 -2 -5 -2 -8 1 -3 2 11 24 31 47 20 23 39 39 42 36 3 -3 -10 -22 -29
-43z m-1313 23 c-11 -8 -22 -12 -25 -9 -6 6 19 24 34 24 6 -1 1 -7 -9 -15z
m890 6 c-3 -5 1 -11 8 -14 8 -3 20 -16 27 -29 11 -20 8 -19 -23 7 -33 28 -39
45 -17 45 6 0 8 -4 5 -9z m278 -33 c-6 -20 -5 -21 10 -9 14 12 16 12 10 -3 -8
-20 -18 -20 -35 0 -10 13 -10 17 2 25 20 13 21 12 13 -13z m-950 0 c-4 -7 -15
-24 -24 -38 -10 -14 -21 -36 -25 -50 -4 -14 -16 -37 -26 -52 -24 -33 -24 -49
-1 -41 13 4 14 3 6 -6 -6 -6 -18 -9 -27 -5 -15 5 -14 10 5 47 11 23 21 44 21
47 0 12 23 57 42 82 20 27 43 39 29 16z m243 -25 c-18 -5 -18 -6 -1 -24 16
-17 18 -17 29 -2 7 9 17 13 23 9 17 -10 15 -24 -5 -29 -12 -3 -10 -5 7 -6 36
-2 47 -12 54 -48 4 -18 15 -42 25 -55 21 -27 33 -69 34 -120 1 -20 4 -35 8
-32 4 2 10 -8 13 -24 4 -15 9 -36 12 -47 7 -28 -34 52 -51 98 -7 21 -12 51
-11 67 1 16 -1 27 -4 25 -11 -7 -90 74 -90 94 0 10 -6 21 -13 24 -9 3 -11 -6
-9 -33 3 -30 9 -40 28 -44 32 -8 71 -63 79 -111 5 -30 4 -36 -4 -25 -6 8 -11
22 -11 31 0 8 -11 26 -25 39 -13 12 -23 27 -22 31 1 5 -9 15 -23 22 -17 8 -27
25 -32 52 -5 24 -17 46 -29 53 -12 8 -18 9 -14 3 3 -6 1 -11 -4 -11 -17 0 -13
18 7 29 9 6 12 11 5 11 -6 0 -18 -6 -25 -13 -14 -14 -48 -29 -48 -22 0 9 86
64 100 63 10 0 8 -2 -3 -5z m-1460 -9 c-3 -3 -12 -4 -19 -1 -8 3 -5 6 6 6 11
1 17 -2 13 -5z m553 -57 c-7 -24 -23 -50 -38 -62 l-27 -20 18 28 c9 15 14 27
9 27 -4 0 -17 7 -28 15 -18 14 -17 14 9 5 41 -15 47 -13 47 14 0 32 12 64 18
47 2 -7 -1 -31 -8 -54z m465 53 c-3 -5 -12 -10 -20 -10 -8 0 -19 -8 -24 -17
-9 -15 -10 -15 -11 -2 0 8 5 20 12 27 14 14 52 16 43 2z m780 0 c3 -6 -1 -7
-9 -4 -18 7 -21 14 -7 14 6 0 13 -4 16 -10z m175 -5 c0 -8 -4 -15 -9 -15 -5 0
-11 7 -15 15 -3 9 0 15 9 15 8 0 15 -7 15 -15z m-1296 -52 c-39 -31 -42 -21
-8 24 24 32 29 35 33 18 2 -12 -7 -27 -25 -42z m254 45 c14 -14 16 -52 2 -43
-5 3 -7 12 -4 19 3 8 1 17 -5 21 -7 4 -8 0 -4 -11 4 -12 3 -15 -5 -10 -13 8
-16 36 -4 36 4 0 13 -5 20 -12z m-308 -19 c0 -10 -4 -19 -10 -19 -5 0 -10 5
-10 10 0 6 -7 10 -15 10 -26 0 -16 15 10 16 18 2 25 -3 25 -17z m1466 -14 c32
-14 55 -28 52 -30 -3 -3 -18 1 -34 10 -16 8 -41 15 -56 15 -18 0 -28 5 -28 15
0 19 -1 19 66 -10z m154 0 c-7 -9 -15 -13 -18 -10 -3 2 1 11 8 20 7 9 15 13
18 10 3 -2 -1 -11 -8 -20z m-1363 -1 c3 -8 12 -13 20 -10 8 3 12 2 9 -2 -2 -4
0 -14 5 -22 8 -13 10 -13 20 0 8 12 9 11 4 -6 -4 -16 2 -26 22 -40 16 -10 34
-17 40 -16 8 2 10 -3 7 -13 -10 -25 14 -45 49 -39 29 4 30 4 8 -6 -27 -12 -24
-17 44 -81 37 -35 39 -39 24 -54 -14 -15 -24 -7 -110 87 -147 161 -169 187
-169 203 0 20 19 19 27 -1z m877 0 c28 -11 17 -24 -11 -14 -26 10 -27 9 -8 -5
11 -9 26 -13 33 -10 8 3 20 1 27 -5 11 -9 10 -17 -2 -41 -8 -16 -18 -27 -22
-24 -4 2 -7 -23 -7 -55 1 -33 -3 -60 -7 -60 -4 0 -21 10 -37 21 -31 24 -31 31
8 93 17 27 21 41 13 49 -7 7 -16 -2 -31 -34 -28 -61 -46 -83 -55 -68 -5 7 1
18 13 28 23 17 57 89 47 99 -3 4 -10 0 -14 -7 -7 -11 -9 -11 -13 0 -3 8 5 19
16 25 26 15 30 15 50 8z m46 -4 c0 -5 -2 -10 -4 -10 -3 0 -8 5 -11 10 -3 6 -1
10 4 10 6 0 11 -4 11 -10z m-474 -26 c-11 -8 -29 -14 -40 -14 -16 0 -12 5 14
19 39 21 56 18 26 -5z m288 11 c-6 -16 -24 -21 -24 -7 0 11 11 22 21 22 5 0 6
-7 3 -15z m-1589 -4 c3 -5 1 -12 -5 -16 -5 -3 -10 1 -10 9 0 18 6 21 15 7z
m325 -16 c-7 -8 -16 -30 -20 -48 -6 -22 -8 -25 -9 -10 -1 30 16 73 30 73 8 0
8 -4 -1 -15z m760 5 c0 -5 -7 -10 -16 -10 -8 0 -12 5 -9 10 3 6 10 10 16 10 5
0 9 -4 9 -10z m1070 -10 c0 -5 -5 -10 -11 -10 -5 0 -7 5 -4 10 3 6 8 10 11 10
2 0 4 -4 4 -10z m-1610 -4 c0 -3 -4 -8 -10 -11 -5 -3 -10 -1 -10 4 0 6 5 11
10 11 6 0 10 -2 10 -4z m77 -18 c2 -18 0 -20 -7 -8 -12 18 -13 30 -2 30 4 0 9
-10 9 -22z m338 12 c-28 -12 -37 -12 -30 0 3 6 16 10 28 9 21 0 21 -1 2 -9z
m852 -30 c1 -32 -2 -38 -11 -31 -14 12 -15 39 -2 59 10 17 11 16 13 -28z
m-557 8 c0 6 5 12 11 12 8 0 8 -5 -1 -15 -13 -16 -30 -11 -30 8 0 7 4 6 10 -3
6 -10 10 -11 10 -2z m660 -13 c7 -9 8 -15 2 -15 -5 0 -12 7 -16 15 -3 8 -4 15
-2 15 2 0 9 -7 16 -15z m425 -4 c-3 -6 -11 -11 -17 -11 -6 0 -6 6 2 15 14 17
26 13 15 -4z m-2120 -18 c0 -22 -4 -27 -20 -25 -35 6 -38 19 -8 35 15 8 28 15
28 16 1 1 1 -11 0 -26z m392 -39 c-12 -13 -27 9 -26 39 l0 32 16 -32 c9 -18
14 -36 10 -39z m59 51 c-27 -21 -53 -20 -36 0 7 8 22 15 34 15 21 -1 21 -1 2
-15z m488 -7 c-8 -27 -74 -98 -74 -80 0 7 3 12 8 12 4 0 21 21 37 45 34 51 39
55 29 23z m1036 -9 c0 -6 -4 -7 -10 -4 -5 3 -10 11 -10 16 0 6 5 7 10 4 6 -3
10 -11 10 -16z m-1330 -9 c0 -5 -2 -10 -4 -10 -3 0 -8 5 -11 10 -3 6 -1 10 4
10 6 0 11 -4 11 -10z m-560 -21 c0 -6 -4 -7 -10 -4 -5 3 -10 11 -10 16 0 6 5
7 10 4 6 -3 10 -11 10 -16z m374 -3 c-3 -13 -1 -34 6 -46 9 -16 9 -25 -1 -36
-28 -35 -46 6 -28 66 13 42 34 57 23 16z m227 -9 c-10 -9 -11 -8 -5 6 3 10 9
15 12 12 3 -3 0 -11 -7 -18z m362 -4 c-5 -12 -2 -15 10 -10 22 8 22 -2 0 -19
-22 -17 -41 -18 -25 -2 8 8 8 15 1 24 -6 7 -8 18 -4 24 10 16 25 2 18 -17z
m105 -9 c37 -7 77 -48 86 -88 4 -17 16 -42 27 -58 11 -15 16 -28 11 -28 -12 0
-73 116 -65 124 4 3 -1 6 -10 6 -9 0 -17 7 -17 15 0 8 -3 14 -7 14 -5 -1 -22
-1 -39 0 -26 1 -33 6 -37 28 -4 24 -4 25 8 10 6 -9 26 -20 43 -23z m612 26 c0
-6 21 -24 48 -41 l47 -30 -40 6 c-64 10 -72 14 -55 26 12 8 11 9 -5 7 -14 -2
-21 3 -23 20 -2 15 2 22 12 22 9 0 16 -5 16 -10z m-1097 -31 c5 -20 27 -27 27
-8 0 7 9 0 20 -14 11 -14 19 -38 19 -54 l-1 -28 -7 30 c-4 20 -16 35 -36 44
-29 14 -54 38 -55 53 0 16 28 -4 33 -23z m-678 -17 c-3 -4 -10 0 -15 8 -6 9
-5 17 3 22 13 8 24 -19 12 -30z m246 25 c-1 -12 -15 -9 -19 4 -3 6 1 10 8 8 6
-3 11 -8 11 -12z m1500 -24 c13 -16 12 -17 -3 -4 -17 13 -22 21 -14 21 2 0 10
-8 17 -17z m-625 -33 c8 0 13 -4 9 -10 -3 -5 -15 -6 -28 -1 -12 4 -28 7 -35 5
-7 -1 -8 0 -2 3 5 2 10 11 10 20 0 12 2 12 16 -1 8 -9 22 -16 30 -16z m-481
10 c-3 -5 -10 -10 -15 -10 -5 0 -32 -14 -60 -32 -48 -30 -50 -33 -31 -42 24
-10 29 -36 7 -36 -8 0 -18 9 -21 20 -7 22 -20 26 -30 10 -3 -5 -11 -10 -17
-10 -5 0 0 11 13 25 13 13 29 25 35 25 6 0 31 13 55 30 43 29 76 40 64 20z
m885 -32 c0 -16 -22 -4 -39 22 l-16 24 28 -18 c15 -10 27 -23 27 -28z m-1216
16 c3 -8 2 -12 -4 -9 -6 3 -10 10 -10 16 0 14 7 11 14 -7z m1531 6 c3 -5 2
-10 -4 -10 -5 0 -13 5 -16 10 -3 6 -2 10 4 10 5 0 13 -4 16 -10z m-1715 -16
c0 -8 -4 -12 -10 -9 -5 3 -10 10 -10 16 0 5 5 9 10 9 6 0 10 -7 10 -16z m1765
6 c3 -5 1 -10 -4 -10 -6 0 -11 5 -11 10 0 6 2 10 4 10 3 0 8 -4 11 -10z
m-1392 -14 c3 -8 3 -17 0 -20 -9 -9 -34 15 -27 25 8 13 21 11 27 -5z m705 -11
c-3 -3 -9 2 -12 12 -6 14 -5 15 5 6 7 -7 10 -15 7 -18z m-28 -1 c0 -9 -5 -14
-12 -12 -18 6 -21 28 -4 28 9 0 16 -7 16 -16z m219 -63 c0 -10 -4 -7 -10 7 -5
13 -16 30 -24 38 -8 9 -15 20 -15 27 0 6 11 -4 25 -23 14 -19 25 -41 24 -49z
m-729 61 c0 -5 -17 -14 -37 -21 -21 -7 -45 -15 -53 -18 -11 -4 -12 -3 -4 6 6
7 29 19 50 26 48 17 44 17 44 7z m64 -31 c-3 -3 -15 6 -27 18 l-22 24 27 -19
c14 -10 24 -21 22 -23z m880 31 c2 -4 1 -14 -3 -21 -6 -9 -10 -7 -14 8 -5 20
7 29 17 13z m322 -7 c10 -26 -1 -35 -13 -10 -6 14 -7 25 -2 25 5 0 12 -7 15
-15z m79 -26 c12 -22 21 -29 33 -25 9 4 -2 -12 -25 -34 -23 -22 -48 -40 -54
-40 -6 0 1 10 17 22 42 32 44 37 25 69 -11 19 -22 27 -33 23 -9 -2 -19 0 -23
6 -4 6 4 10 19 10 18 0 30 -9 41 -31z m-1675 -14 c0 -13 -4 -26 -9 -29 -11 -7
-24 41 -16 55 10 15 25 0 25 -26z m632 13 c-7 -7 -12 -8 -12 -2 0 6 3 14 7 17
3 4 9 5 12 2 2 -3 -1 -11 -7 -17z m808 12 c0 -5 -5 -10 -11 -10 -5 0 -7 5 -4
10 3 6 8 10 11 10 2 0 4 -4 4 -10z m-1500 -45 c0 -19 -4 -35 -10 -35 -11 0
-14 53 -3 63 11 12 13 8 13 -28z m1630 25 c0 -5 -2 -10 -4 -10 -3 0 -8 5 -11
10 -3 6 -1 10 4 10 6 0 11 -4 11 -10z m-1784 -24 c-1 -18 -4 -22 -13 -14 -17
14 -16 38 1 38 8 0 13 -9 12 -24z m44 9 c7 -9 8 -15 2 -15 -5 0 -12 7 -16 15
-3 8 -4 15 -2 15 2 0 9 -7 16 -15z m-284 -22 c-7 -7 -86 10 -81 17 2 4 23 3
44 -3 22 -6 39 -12 37 -14z m584 7 c0 -19 -18 -19 -23 -1 -3 14 -1 18 9 14 8
-3 14 -9 14 -13z m475 11 c-16 -14 -55 -23 -55 -12 0 8 16 14 55 20 6 0 6 -2
0 -8z m581 -28 c-3 -7 -1 -13 4 -13 6 0 9 -10 9 -22 -1 -17 -2 -19 -6 -5 -2 9
-9 17 -15 17 -5 0 -8 6 -5 14 3 8 -1 17 -9 20 -9 3 -12 11 -9 16 9 15 37 -9
31 -27z m104 17 c6 -11 8 -20 6 -20 -3 0 -10 9 -16 20 -6 11 -8 20 -6 20 3 0
10 -9 16 -20z m165 10 c3 -5 1 -10 -4 -10 -6 0 -11 5 -11 10 0 6 2 10 4 10 3
0 8 -4 11 -10z m-715 -4 c0 -2 -8 -10 -17 -17 -16 -13 -17 -12 -4 4 13 16 21
21 21 13z m850 -11 c0 -1 -10 -10 -22 -21 -13 -10 -17 -12 -10 -4 15 18 16 34
0 24 -7 -4 -8 -3 -4 4 5 9 36 7 36 -3z m-1414 -21 c-18 -18 -20 -30 -7 -39 6
-3 9 -14 8 -25 -2 -24 -17 -15 -17 11 0 25 -23 24 -69 -2 l-36 -21 30 26 c17
14 35 26 41 26 6 0 19 9 29 20 10 11 22 20 27 20 5 0 2 -7 -6 -16z m488 0 c9
-3 13 -10 10 -15 -3 -5 0 -9 6 -9 6 0 8 -5 5 -10 -4 -6 -11 -8 -16 -5 -16 10
-10 -10 16 -56 14 -24 30 -56 36 -71 13 -33 33 -38 24 -5 -5 16 -4 18 4 8 15
-23 41 4 38 40 -2 31 -15 37 -37 17 -9 -9 -8 -6 2 9 23 35 134 111 145 99 3
-2 -8 -12 -24 -20 -15 -9 -41 -27 -57 -40 -24 -20 -27 -27 -17 -39 9 -12 9
-16 -1 -20 -7 -3 -3 -6 9 -6 13 -1 34 14 55 37 33 39 68 60 68 42 0 -6 -4 -10
-8 -10 -4 0 -30 -21 -58 -47 -28 -27 -61 -55 -72 -63 -12 -8 -22 -20 -22 -27
0 -7 -7 -13 -15 -13 -10 0 -4 -22 25 -86 22 -47 37 -90 34 -95 -19 -31 -44 6
-129 196 -68 152 -68 151 -56 174 13 23 13 23 35 15z m-726 -61 c-5 -6 -16 -9
-24 -6 -11 4 -12 9 -5 16 8 8 6 17 -7 31 -12 15 -9 14 14 -4 22 -17 29 -29 22
-37z m1172 10 c0 -21 -17 -15 -34 12 -9 13 -16 27 -16 30 0 12 49 -30 50 -42z
m-1490 15 c13 -15 17 -24 9 -27 -6 -2 -15 2 -19 8 -4 7 -18 10 -31 8 -13 -2
-18 -2 -11 0 6 3 12 11 12 19 0 20 16 17 40 -8z m830 -14 c0 -8 -4 -12 -10 -9
-5 3 -10 10 -10 16 0 5 5 9 10 9 6 0 10 -7 10 -16z m315 6 c3 -5 1 -10 -4 -10
-6 0 -11 5 -11 10 0 6 2 10 4 10 3 0 8 -4 11 -10z m765 -16 l0 -25 26 20 c15
12 34 21 43 21 10 0 6 -7 -12 -19 -16 -10 -28 -22 -27 -26 3 -12 -22 -24 -37
-18 -10 4 -12 14 -9 29 4 13 3 24 -1 23 -17 -3 -24 1 -18 11 12 20 35 10 35
-16z m-1144 1 c-19 -15 -46 -20 -46 -10 0 6 40 24 55 24 6 0 1 -6 -9 -14z
m1099 -5 c10 -11 15 -23 12 -26 -4 -4 -9 1 -13 10 -4 9 -17 16 -34 16 -16 0
-32 5 -35 10 -12 19 52 10 70 -10z m-326 -29 c-2 -6 -10 2 -17 17 -11 25 -11
25 4 10 9 -9 15 -21 13 -27z m509 2 c-12 -13 -26 -23 -32 -23 -5 0 -1 7 10 15
15 12 15 14 2 9 -9 -3 -25 -1 -35 6 -16 10 -15 10 5 5 12 -4 22 -2 22 3 0 6
11 9 24 8 l25 -1 -21 -22z m94 0 c21 -19 23 -33 5 -33 -8 0 -19 11 -25 25 -13
29 -6 32 20 8z m-1952 2 c0 -2 -18 -14 -40 -25 -48 -25 -53 -18 -7 10 32 20
47 25 47 15z m1640 -5 c0 -5 -12 -10 -27 -10 -22 0 -25 2 -13 10 20 13 40 13
40 0z m-1148 -15 c0 -5 -5 -11 -11 -13 -6 -2 -11 4 -11 13 0 9 5 15 11 13 6
-2 11 -8 11 -13z m262 -18 c26 -18 27 -21 10 -30 -13 -7 -19 -7 -22 3 -3 7
-13 21 -23 31 -37 37 -22 35 35 -4z m720 15 c3 -5 -1 -9 -9 -9 -8 0 -15 4 -15
9 0 4 4 8 9 8 6 0 12 -4 15 -8z m61 -7 c-11 -8 -28 -22 -37 -31 -10 -10 -20
-15 -24 -12 -9 9 45 58 64 58 15 -1 14 -3 -3 -15z m-1360 -12 c48 -12 50 -13
33 -29 -14 -14 -17 -14 -34 0 -11 9 -28 23 -39 32 l-20 16 20 -7 c11 -4 29 -9
40 -12z m1748 -9 c3 -17 1 -22 -6 -15 -7 7 -34 -2 -86 -28 -98 -49 -140 -65
-149 -57 -9 9 12 22 68 42 75 26 150 63 150 74 0 21 18 9 23 -16z m-993 6 c0
-5 -4 -10 -10 -10 -5 0 -10 5 -10 10 0 6 5 10 10 10 6 0 10 -4 10 -10z m-1020
-10 c0 -5 -4 -10 -10 -10 -5 0 -10 5 -10 10 0 6 5 10 10 10 6 0 10 -4 10 -10z
m1374 -24 c7 3 16 -2 19 -10 4 -10 1 -13 -9 -9 -8 3 -14 -1 -14 -8 0 -20 -26
11 -35 41 l-7 25 16 -22 c9 -12 23 -20 30 -17z m113 28 c-3 -3 -12 -4 -19 -1
-8 3 -5 6 6 6 11 1 17 -2 13 -5z m-1097 -14 c0 -5 -7 -10 -15 -10 -8 0 -15 5
-15 10 0 6 7 10 15 10 8 0 15 -4 15 -10z m-43 -26 c2 -5 -6 -15 -17 -22 -17
-10 -21 -10 -27 4 -3 9 0 20 8 25 16 10 31 7 36 -7z m183 11 c0 -2 -16 -12
-35 -21 -47 -22 -38 -30 10 -10 56 24 56 18 0 -11 -31 -16 -51 -21 -53 -14 -4
12 -32 15 -32 4 0 -5 4 -14 9 -22 7 -11 19 -9 64 14 31 15 64 25 74 22 13 -3
7 -9 -24 -22 -23 -10 -40 -23 -39 -29 2 -6 1 -8 -1 -3 -3 4 -14 7 -25 7 -13 0
-18 -5 -15 -14 4 -10 1 -13 -8 -10 -10 4 -13 0 -10 -15 2 -12 0 -19 -6 -16 -5
4 -7 11 -4 16 4 5 -3 9 -14 9 -23 0 -28 15 -8 23 6 3 3 6 -8 6 -17 1 -17 3 -5
11 19 12 13 12 -28 0 -26 -7 -31 -6 -24 3 6 7 11 17 12 22 1 6 4 12 7 15 4 3
3 -1 -1 -7 -9 -16 6 -17 22 -1 7 7 12 9 12 5 0 -3 21 5 46 18 42 22 84 33 84
20z m244 -1 c16 -6 12 -24 -5 -24 -6 0 -8 4 -5 9 4 5 0 12 -6 14 -7 3 -10 6
-6 6 3 1 13 -2 22 -5z m126 -25 c0 -5 -11 -9 -25 -9 -26 0 -35 25 -12 33 13 5
37 -10 37 -24z m-1320 5 c0 -2 -7 -4 -15 -4 -8 0 -15 4 -15 10 0 5 7 7 15 4 8
-4 15 -8 15 -10z m1750 6 c0 -12 -48 -32 -63 -27 -6 2 5 11 24 20 41 20 39 20
39 7z m182 -12 c-7 -7 -12 -8 -12 -2 0 14 12 26 19 19 2 -3 -1 -11 -7 -17z
m-1588 -4 c3 -8 2 -12 -4 -9 -6 3 -10 10 -10 16 0 14 7 11 14 -7z m916 -3 c0
-14 -18 -23 -31 -15 -8 4 -7 9 2 15 18 11 29 11 29 0z m-742 -21 c17 -11 32
-24 32 -29 0 -8 -50 -26 -54 -19 -1 2 -8 12 -16 22 -15 19 -14 19 13 2 15 -10
27 -15 27 -10 0 5 -12 18 -27 31 -35 28 -19 30 25 3z m1322 -15 c0 -5 -5 -3
-10 5 -5 8 -10 20 -10 25 0 6 5 3 10 -5 5 -8 10 -19 10 -25z m109 9 c-14 -18
-24 -11 -15 11 3 9 11 13 16 10 8 -5 7 -11 -1 -21z m-574 6 c-3 -5 -11 -10
-16 -10 -6 0 -7 5 -4 10 3 6 11 10 16 10 6 0 7 -4 4 -10z m-347 -18 c-10 -2
-18 -7 -18 -12 0 -4 -11 -10 -24 -12 -18 -4 -22 -1 -19 13 5 19 37 29 63 20
12 -4 12 -6 -2 -9z m457 8 c3 -5 1 -10 -4 -10 -6 0 -11 5 -11 10 0 6 2 10 4
10 3 0 8 -4 11 -10z m-259 -15 c10 -8 14 -15 7 -15 -6 0 -15 5 -19 11 -6 11
-28 9 -69 -6 -20 -7 -20 -6 -1 9 25 20 56 20 82 1z m402 -13 c-16 -22 -93 -92
-102 -92 -3 0 -6 7 -6 15 0 8 7 15 15 15 9 0 34 18 56 40 43 43 59 52 37 22z
m532 3 c-7 -8 -16 -15 -21 -15 -5 0 -9 7 -9 15 0 9 9 15 21 15 18 0 19 -2 9
-15z m256 -59 c-4 -15 -25 -29 -75 -49 -81 -31 -106 -34 -115 -11 -14 36 -6
64 22 77 39 20 80 29 86 18 7 -11 61 14 73 32 10 15 17 -37 9 -67z m-916 54
c0 -5 -2 -10 -4 -10 -3 0 -8 5 -11 10 -3 6 -1 10 4 10 6 0 11 -4 11 -10z m613
-7 c-7 -2 -19 -2 -25 0 -7 3 -2 5 12 5 14 0 19 -2 13 -5z m-1003 -19 c0 -10
-6 -14 -15 -10 -8 3 -15 0 -15 -7 0 -7 -4 -6 -10 3 -7 11 -4 17 13 22 12 3 23
6 25 7 1 1 2 -6 2 -15z m685 5 c4 -5 0 -18 -9 -28 -9 -10 -16 -23 -16 -29 0
-7 -11 -12 -25 -12 -27 0 -33 14 -11 27 7 4 18 18 25 31 13 24 26 28 36 11z
m60 -32 c0 -29 4 -37 19 -37 15 0 16 -3 7 -14 -17 -20 -51 -27 -51 -10 0 8 -6
14 -14 14 -23 0 -25 12 -13 53 9 29 17 37 32 35 16 -2 20 -11 20 -41z m-1046
30 c-2 -2 -17 -11 -34 -21 l-30 -17 24 20 c13 12 28 21 34 21 6 0 8 -1 6 -3z
m891 -46 c3 -2 -2 -2 -11 1 -10 4 -27 -8 -49 -33 -18 -21 -46 -45 -61 -53
l-29 -14 21 36 c12 21 37 49 57 64 35 28 40 28 72 -1z m-409 -2 c43 -15 96
-54 110 -82 7 -14 -2 -9 -26 15 -43 44 -91 60 -138 47 -40 -11 -57 -11 -57 -1
0 11 39 30 61 31 9 1 31 -4 50 -10z m661 -14 c-5 -26 -16 -32 -27 -15 -7 11
11 40 25 40 4 0 5 -11 2 -25z m83 -7 c-4 -13 -9 -31 -11 -41 -6 -18 4 -24 43
-30 30 -4 40 -15 11 -12 -13 1 -35 3 -50 4 -31 1 -40 29 -24 74 13 33 40 38
31 5z m-1145 -13 c-9 -11 -9 -15 -1 -15 7 0 9 -5 5 -11 -4 -8 -9 -7 -15 2 -6
11 -30 -8 -94 -71 -92 -91 -118 -101 -35 -14 44 46 49 57 40 74 -9 16 -8 20 5
20 8 0 15 -7 15 -16 0 -12 10 -8 42 15 46 34 57 39 38 16z m275 5 c-3 -5 -12
-10 -20 -10 -8 0 -17 5 -20 10 -4 6 5 10 20 10 15 0 24 -4 20 -10z m260 0
c-28 -12 -37 -12 -30 0 3 6 16 10 28 9 21 0 21 -1 2 -9z m555 -11 c0 -5 -4 -9
-8 -9 -5 0 -9 7 -9 15 0 8 4 12 9 9 4 -3 8 -9 8 -15z m-166 -9 c15 -15 -4 -33
-20 -19 -8 6 -14 9 -14 6 0 -3 -13 -1 -30 4 -16 6 -28 14 -25 19 6 9 77 2 89
-10z m576 -1 c-21 -37 -150 -78 -150 -46 0 16 76 47 116 47 13 0 26 5 29 10
12 19 16 10 5 -11z m-1170 2 c0 -12 -30 -22 -43 -14 -7 4 -3 9 9 14 26 10 34
10 34 0z m726 -18 c-8 -8 -36 5 -36 17 0 7 6 7 21 0 11 -7 18 -14 15 -17z
m-796 -8 c-11 -13 -8 -15 21 -16 l34 -1 -34 -14 c-43 -19 -64 -4 -36 26 21 23
34 27 15 5z m743 1 c5 -12 -2 -14 -31 -7 -2 1 0 6 3 11 9 14 22 12 28 -4z
m-537 -24 c-8 -9 -19 -13 -22 -9 -10 9 16 38 28 31 6 -4 4 -13 -6 -22z m405
11 c8 -9 9 -14 2 -10 -6 4 -14 1 -16 -5 -3 -7 -6 -3 -6 10 -1 26 2 27 20 5z
m-1281 3 c0 -2 -7 -7 -16 -10 -8 -3 -12 -2 -9 4 6 10 25 14 25 6z m634 -37 c7
-30 -15 -47 -33 -25 -7 9 -6 19 5 35 18 26 19 25 28 -10z m496 17 c0 -18 -16
-29 -30 -21 -13 8 -1 35 16 35 8 0 14 -6 14 -14z m610 -1 c0 -8 -9 -15 -20
-15 -13 0 -18 5 -14 15 4 8 12 15 20 15 8 0 14 -7 14 -15z m-555 -15 c3 -5 -3
-10 -15 -10 -12 0 -18 5 -15 10 3 6 10 10 15 10 5 0 12 -4 15 -10z m235 -11
c0 -11 -4 -18 -10 -14 -5 3 -7 12 -3 20 7 21 13 19 13 -6z m-694 -4 c-10 -8
-23 -12 -28 -9 -14 9 2 24 25 24 21 -1 21 -1 3 -15z m281 -10 c-5 -12 10 -14
89 -14 97 1 122 -4 88 -18 -12 -5 -19 -18 -19 -35 -1 -14 2 -25 6 -22 4 2 5
-23 3 -56 -3 -55 5 -75 21 -50 7 11 25 4 25 -10 0 -4 -13 -13 -30 -19 -23 -8
-30 -16 -31 -38 -1 -15 -2 -32 -3 -38 -10 -56 -17 -109 -21 -155 -2 -30 -4
-55 -5 -55 -1 0 -3 -13 -5 -30 -2 -16 -7 -40 -9 -51 -4 -13 0 -24 8 -27 7 -3
18 -20 25 -39 10 -30 9 -31 -4 -14 -8 11 -15 23 -15 28 0 4 -4 8 -9 8 -4 0
-11 -26 -15 -59 -10 -87 -24 -96 -147 -96 -70 0 -102 4 -108 13 -4 7 -14 10
-23 7 -8 -3 -24 2 -36 12 -20 16 -23 33 -31 158 -4 77 -9 156 -11 175 -2 19
-3 117 -4 218 0 100 -3 182 -5 182 -2 0 -9 -7 -16 -17 -7 -10 -19 -14 -29 -10
-24 10 -14 33 12 29 12 -2 22 2 22 8 0 9 34 10 130 5 114 -6 131 -5 136 9 3 9
8 16 11 16 3 0 3 -7 0 -15z m847 -10 c-9 -14 -18 -25 -21 -25 -5 0 5 18 20 38
17 22 18 13 1 -13z m-614 5 c0 -5 -7 -10 -16 -10 -8 0 -12 5 -9 10 3 6 10 10
16 10 5 0 9 -4 9 -10z m-720 -9 c0 -6 -4 -13 -10 -16 -5 -3 -10 1 -10 9 0 9 5
16 10 16 6 0 10 -4 10 -9z m-584 -28 c-10 -10 -19 5 -10 18 6 11 8 11 12 0 2
-7 1 -15 -2 -18z m1519 17 c3 -5 -1 -10 -9 -10 -9 0 -16 5 -16 10 0 6 4 10 9
10 6 0 13 -4 16 -10z m-1385 -20 c0 -5 -5 -10 -11 -10 -5 0 -7 5 -4 10 3 6 8
10 11 10 2 0 4 -4 4 -10z m1470 -15 c8 -8 47 -18 85 -24 l70 -10 -69 5 c-60 4
-156 35 -156 49 0 9 54 -7 70 -20z m-141 -2 c0 -10 -4 -27 -9 -38 -7 -16 -9
-12 -8 18 1 20 6 37 10 37 4 0 8 -8 7 -17z m-931 -14 c-2 -6 -8 -10 -13 -10
-5 0 -11 4 -13 10 -2 6 4 11 13 11 9 0 15 -5 13 -11z m1352 2 c0 -12 -20 -25
-27 -18 -7 7 6 27 18 27 5 0 9 -4 9 -9z m-380 -11 c0 -5 -2 -10 -4 -10 -3 0
-8 5 -11 10 -3 6 -1 10 4 10 6 0 11 -4 11 -10z m330 -1 c0 -6 -10 -13 -22 -17
-21 -5 -21 -6 -2 -13 18 -7 18 -8 -2 -8 -21 -1 -39 30 -26 43 10 11 52 6 52
-5z m-482 -26 c-4 -22 -22 -20 -26 1 -2 10 3 16 13 16 10 0 15 -7 13 -17z m45
1 c-3 -8 3 -24 13 -34 50 -51 56 -73 14 -50 -15 8 -19 15 -11 19 7 5 3 12 -14
19 -27 13 -32 31 -13 50 16 16 19 15 11 -4z m152 -2 c-3 -3 -11 0 -18 7 -9 10
-8 11 6 5 10 -3 15 -9 12 -12z m-120 -2 c-3 -5 -12 -10 -18 -10 -7 0 -6 4 3
10 19 12 23 12 15 0z m235 -11 c52 -11 96 -22 99 -25 8 -8 -28 -4 -91 10 -35
8 -72 14 -82 13 -10 -1 -21 4 -23 11 -6 15 -14 16 97 -9z m-1010 -92 l-22 -22
6 54 c10 74 19 84 30 33 8 -39 7 -46 -14 -65z m-202 63 c-7 -10 -14 -17 -17
-15 -4 4 18 35 25 35 2 0 -1 -9 -8 -20z m1369 5 c-4 -13 -47 -20 -47 -7 0 13
7 18 30 18 11 0 19 -5 17 -11z m-496 -30 c-1 -15 -24 -12 -29 3 -3 9 2 13 12
10 10 -1 17 -7 17 -13z m-984 -21 c-9 -9 -28 6 -21 18 4 6 10 6 17 -1 6 -6 8
-13 4 -17z m428 7 c-3 -6 -11 -11 -17 -11 -6 0 -6 6 2 15 14 17 26 13 15 -4z
m-35 -11 c0 -5 -5 -10 -11 -10 -5 0 -7 5 -4 10 3 6 8 10 11 10 2 0 4 -4 4 -10z
m625 0 c3 -5 -1 -10 -10 -10 -9 0 -13 5 -10 10 3 6 8 10 10 10 2 0 7 -4 10
-10z m110 -21 c12 -19 -5 -23 -22 -6 -16 16 -16 17 -1 17 9 0 20 -5 23 -11z
m-911 -80 c-9 -11 -19 -17 -22 -15 -2 3 -15 1 -28 -4 -15 -6 -24 -6 -24 0 0 5
12 13 28 16 40 10 52 23 54 58 l1 31 4 -33 c3 -23 -1 -40 -13 -53z m126 67 c0
-8 -11 -28 -25 -43 l-24 -28 -1 26 c0 16 9 33 23 42 28 20 27 20 27 3z m711
-1 c-1 -15 -24 -12 -29 3 -3 9 2 13 12 10 10 -1 17 -7 17 -13z m-621 -19 c0
-2 -8 -10 -17 -17 -16 -13 -17 -12 -4 4 13 16 21 21 21 13z m-574 -32 c-4 -9
-1 -22 5 -30 6 -8 7 -19 2 -29 -8 -14 -11 -14 -25 2 -9 10 -20 30 -23 46 -7
24 -5 27 20 27 21 0 26 -4 21 -16z m120 -3 c-8 -12 -46 -21 -46 -11 0 5 8 11
18 13 29 8 33 7 28 -2z m1170 -32 c3 -6 -5 -3 -20 6 -14 10 -26 19 -26 22 0 7
39 -17 46 -28z m-1237 -20 c-24 -15 -30 -10 -11 9 9 10 19 14 21 9 2 -5 -3
-13 -10 -18z m179 19 c6 -1 12 -5 12 -9 0 -4 -24 -6 -52 -4 -29 2 -60 5 -68 5
-11 1 -10 4 4 9 10 4 35 5 55 3 20 -2 42 -4 49 -4z m847 -28 c10 -11 16 -20
13 -20 -3 0 -13 9 -23 20 -10 11 -16 20 -13 20 3 0 13 -9 23 -20z m-784 -21
c1 -5 2 -13 3 -18 0 -5 12 -24 25 -41 17 -23 29 -31 45 -28 14 3 23 0 23 -9 0
-24 -36 -14 -68 20 -37 39 -66 99 -43 90 8 -3 15 -9 15 -14z m216 -31 c-3 -8
-6 -5 -6 6 -1 11 2 17 5 13 3 -3 4 -12 1 -19z m829 5 c18 -24 18 -44 0 -37 -8
3 -16 16 -19 30 -5 28 1 31 19 7z m-1076 -7 c0 -3 -4 -8 -10 -11 -5 -3 -10 -1
-10 4 0 6 5 11 10 11 6 0 10 -2 10 -4z m1040 -11 c18 -22 -7 -27 -72 -16 -5 0
-8 8 -8 16 0 20 63 20 80 0z m-1181 -35 c3 0 17 7 29 16 29 20 28 4 -1 -24
-18 -17 -29 -20 -52 -14 -23 7 -26 10 -12 15 9 3 18 14 18 24 1 17 2 17 6 1 2
-10 8 -18 12 -18z m83 12 c7 -25 -47 -90 -55 -68 -4 10 3 22 19 33 17 11 24
23 21 35 -3 10 -2 18 3 18 4 0 10 -8 12 -18z m288 -1 c0 -5 -7 -14 -15 -21
-12 -10 -15 -10 -15 2 0 8 3 18 7 21 9 10 23 9 23 -2z m-245 -21 c3 -5 1 -10
-4 -10 -6 0 -11 5 -11 10 0 6 2 10 4 10 3 0 8 -4 11 -10z m1039 -5 c24 -10 36
-22 36 -35 0 -10 5 -22 10 -25 15 -9 13 -85 -2 -85 -9 0 -8 -4 2 -10 12 -7 12
-13 4 -27 -14 -23 -30 -18 -26 8 2 20 1 20 -28 -1 l-30 -21 -1 43 c0 24 -2 71
-3 106 -2 34 -2 62 -1 62 1 0 19 -7 39 -15z m95 -36 c19 -47 27 -89 17 -89 -2
0 -11 -3 -19 -6 -12 -4 -16 6 -20 43 -3 26 -8 60 -12 76 -12 47 11 30 34 -24z
m-940 -13 l-2 -31 -4 30 c-3 17 -10 37 -16 45 -10 13 -10 13 6 1 10 -8 16 -25
16 -45z m81 15 c-6 -12 -15 -21 -21 -21 -5 0 -2 11 7 25 20 30 31 26 14 -4z
m-155 -26 c-28 -23 -45 -31 -45 -21 0 5 63 46 70 46 3 0 -8 -11 -25 -25z m801
-99 c6 -48 5 -58 -7 -54 -15 5 -32 93 -23 117 9 26 23 -3 30 -63z m-899 -18
c-3 -7 -5 -2 -5 12 0 14 2 19 5 13 2 -7 2 -19 0 -25z m278 -36 c-6 -4 -23 -27
-38 -50 -16 -24 -31 -42 -34 -39 -12 13 50 97 71 97 7 0 8 -3 1 -8z m614 -38
c-14 -18 -24 -11 -15 11 3 9 11 13 16 10 8 -5 7 -11 -1 -21z m191 12 c0 -18
-19 -33 -55 -42 -35 -8 -57 -23 -50 -34 3 -5 1 -11 -4 -15 -6 -3 -8 -12 -5
-19 7 -18 -22 -41 -31 -26 -4 7 -2 17 4 23 6 6 11 19 11 29 0 19 73 78 97 78
7 0 13 5 13 10 0 6 5 10 10 10 6 0 10 -6 10 -14z m-1020 -24 c0 -9 7 -30 15
-46 16 -31 15 -45 -2 -24 -11 14 -33 75 -33 90 0 5 5 6 10 3 6 -3 10 -14 10
-23z m70 -12 c0 -5 -2 -10 -4 -10 -3 0 -8 5 -11 10 -3 6 -1 10 4 10 6 0 11 -4
11 -10z m761 -36 c17 -8 28 -18 25 -21 -8 -8 -86 18 -86 29 0 13 28 9 61 -8z
m-711 -10 c0 -8 -4 -12 -10 -9 -5 3 -10 10 -10 16 0 5 5 9 10 9 6 0 10 -7 10
-16z m152 -13 c9 -10 24 -23 34 -29 16 -9 16 -11 -4 -32 -22 -23 -42 -20 -42
7 0 22 -13 8 -17 -19 -5 -30 -6 -31 -52 -23 -40 7 -101 51 -101 74 0 19 18 12
25 -9 12 -37 40 -43 94 -19 47 20 78 19 66 -2 -4 -5 -1 -9 4 -9 18 0 12 15
-14 40 -25 23 -32 40 -17 40 4 0 15 -9 24 -19z m90 -33 c-7 -7 -12 -8 -12 -2
0 14 12 26 19 19 2 -3 -1 -11 -7 -17z m478 4 c0 -5 -7 -9 -15 -9 -8 0 -15 4
-15 9 0 4 7 8 15 8 8 0 15 -4 15 -8z m-320 -32 c-6 -12 -14 -20 -17 -17 -2 3
1 14 8 26 17 26 24 19 9 -9z m-160 3 c0 -10 -20 -40 -20 -31 0 3 -3 13 -6 22
-4 11 -1 16 10 16 9 0 16 -3 16 -7z m510 -3 c0 -5 -5 -10 -11 -10 -5 0 -7 5
-4 10 3 6 8 10 11 10 2 0 4 -4 4 -10z m-229 -41 l-10 -24 0 26 c-1 14 2 29 6
33 12 12 14 -9 4 -35z m193 1 c-6 -6 -21 -6 -39 -1 -30 9 -30 9 10 10 25 1 36
-2 29 -9z m26 -15 c-7 -8 -17 -15 -23 -15 -6 0 -2 8 9 19 22 21 33 19 14 -4z
m-576 -24 c-5 -6 -34 20 -34 30 0 5 8 1 18 -8 10 -10 17 -20 16 -22z m466 20
c0 -5 -7 -12 -16 -15 -14 -5 -15 -4 -4 9 14 17 20 19 20 6z m-810 -11 c0 -5
-5 -10 -11 -10 -5 0 -7 5 -4 10 3 6 8 10 11 10 2 0 4 -4 4 -10z m50 -4 c0 -3
-4 -8 -10 -11 -5 -3 -10 -1 -10 4 0 6 5 11 10 11 6 0 10 -2 10 -4z m118 -27
c35 -33 42 -52 15 -42 -21 7 -73 53 -73 65 0 17 26 7 58 -23z m252 11 c8 -5
11 -10 5 -10 -5 0 -17 5 -25 10 -8 5 -10 10 -5 10 6 0 17 -5 25 -10z m390 -48
c0 -11 -37 -32 -44 -25 -15 15 -4 33 19 33 14 0 25 -3 25 -8z m-73 -34 c-3 -8
-6 -5 -6 6 -1 11 2 17 5 13 3 -3 4 -12 1 -19z m-507 -3 c0 -8 -4 -15 -10 -15
-5 0 -7 7 -4 15 4 8 8 15 10 15 2 0 4 -7 4 -15z m176 -12 c-14 -7 -26 -21 -26
-31 -1 -23 -24 -52 -42 -52 -8 0 -31 -11 -51 -24 -32 -22 -36 -23 -51 -8 -14
15 -14 17 1 34 9 10 11 18 5 18 -6 0 -12 -6 -15 -12 -4 -10 -7 -10 -17 -1 -11
10 -8 14 14 23 15 5 32 10 37 10 6 0 7 4 4 10 -3 5 0 7 8 4 8 -3 18 -1 22 5 3
6 11 11 16 11 6 0 7 -5 4 -10 -4 -6 4 -6 19 1 13 6 22 17 20 24 -4 8 3 11 20
10 14 -2 28 1 32 6 3 5 10 6 16 3 6 -4 0 -13 -16 -21z m539 17 c3 -5 2 -10 -4
-10 -5 0 -13 5 -16 10 -3 6 -2 10 4 10 5 0 13 -4 16 -10z m-671 -18 c3 -5 -1
-9 -9 -9 -8 0 -12 4 -9 9 3 4 7 8 9 8 2 0 6 -4 9 -8z m336 -23 c0 -11 -4 -17
-10 -14 -5 3 -10 13 -10 21 0 8 5 14 10 14 6 0 10 -9 10 -21z m-65 -9 c-3 -5
-12 -10 -18 -10 -7 0 -6 4 3 10 19 12 23 12 15 0z m182 -62 c-3 -8 -6 -5 -6 6
-1 11 2 17 5 13 3 -3 4 -12 1 -19z m-78 -53 c0 -13 -5 -8 -14 15 -18 46 -18
61 0 30 8 -14 14 -34 14 -45z m216 35 c-4 -12 -1 -27 5 -35 9 -10 9 -15 1 -15
-13 0 -26 45 -16 59 11 18 17 12 10 -9z m-615 -68 c0 -15 -5 -34 -10 -42 -7
-11 -9 -1 -7 31 2 49 17 58 17 11z m80 -19 c-1 -41 -23 -82 -35 -63 -7 11 2
76 11 92 12 20 24 5 24 -29z m515 18 c-3 -6 -11 -11 -17 -11 -6 0 -6 6 2 15
14 17 26 13 15 -4z m-725 -77 c7 -17 15 -24 25 -20 8 3 15 1 15 -4 0 -6 -7
-10 -15 -10 -20 0 -19 -8 5 -47 11 -18 16 -33 11 -33 -5 0 -14 13 -21 30 -7
16 -15 28 -19 25 -4 -2 -8 8 -8 23 0 15 -4 35 -8 45 -4 9 -4 17 -1 17 4 0 11
-12 16 -26z m120 -54 c0 -5 7 -10 15 -10 8 0 15 -4 15 -8 0 -5 -13 -7 -30 -4
-29 4 -37 12 -23 25 10 10 23 8 23 -3z m71 -35 c-1 -15 -24 -12 -29 3 -3 9 2
13 12 10 10 -1 17 -7 17 -13z m216 -132 c-3 -3 -11 -2 -17 2 -9 6 -9 10 1 16
14 8 27 -7 16 -18z"/>
<path d="M2370 2620 c0 -5 4 -10 9 -10 6 0 13 5 16 10 3 6 -1 10 -9 10 -9 0
-16 -4 -16 -10z"/>
<path d="M2560 2496 c0 -2 7 -7 16 -10 8 -3 12 -2 9 4 -6 10 -25 14 -25 6z"/>
<path d="M2065 2290 c-3 -5 -1 -10 4 -10 6 0 11 5 11 10 0 6 -2 10 -4 10 -3 0
-8 -4 -11 -10z"/>
<path d="M3072 2004 c-18 -20 -15 -27 11 -21 21 6 21 6 3 -8 -11 -8 -15 -15
-9 -15 13 0 26 18 29 37 3 18 -19 22 -34 7z"/>
<path d="M2310 1759 c0 -11 4 -18 10 -14 5 3 7 12 3 20 -7 21 -13 19 -13 -6z"/>
<path d="M2305 1699 c-4 -6 -5 -12 -2 -15 2 -3 7 2 10 11 7 17 1 20 -8 4z"/>
<path d="M2030 1683 c0 -5 9 -18 20 -28 11 -10 20 -14 20 -8 0 5 -9 18 -20 28
-11 10 -20 14 -20 8z"/>
<path d="M2303 1653 c-3 -10 -8 -22 -11 -27 -3 -5 0 -6 5 -3 11 7 25 47 17 47
-3 0 -7 -8 -11 -17z"/>
<path d="M2110 1600 c0 -5 5 -10 11 -10 5 0 7 5 4 10 -3 6 -8 10 -11 10 -2 0
-4 -4 -4 -10z"/>
<path d="M2276 1584 c-5 -14 -4 -15 9 -4 17 14 19 20 6 20 -5 0 -12 -7 -15
-16z"/>
<path d="M2163 1574 c-7 -18 7 -46 25 -52 8 -2 12 9 12 32 0 38 -25 51 -37 20z"/>
<path d="M2257 1554 c-10 -11 -9 -26 2 -20 5 4 11 2 13 -4 2 -6 9 0 17 12 13
21 13 22 -1 10 -11 -9 -17 -9 -20 -2 -2 6 -7 8 -11 4z"/>
<path d="M2210 1510 c-9 -6 -10 -10 -3 -10 6 0 15 5 18 10 8 12 4 12 -15 0z"/>
<path d="M2289 1461 c8 -5 10 -14 5 -22 -6 -11 -4 -11 10 0 13 11 14 16 4 22
-7 5 -17 9 -23 9 -5 0 -4 -4 4 -9z"/>
<path d="M2248 1443 c-10 -2 -18 -10 -18 -18 0 -7 -7 -18 -15 -25 -8 -7 -13
-16 -10 -20 8 -13 -6 -40 -18 -33 -5 3 -8 2 -5 -3 3 -5 1 -20 -4 -34 -18 -44
-19 -72 -2 -66 9 3 18 6 20 6 2 0 4 6 4 14 0 8 6 17 13 19 7 3 5 6 -5 6 -26 1
-22 16 21 92 22 38 39 68 38 68 -1 -1 -10 -3 -19 -6z"/>
<path d="M2118 1397 c-21 -6 -38 -15 -38 -20 0 -5 7 -6 16 -3 9 3 21 6 28 6 7
0 21 7 32 15 22 16 15 17 -38 2z"/>
<path d="M1970 1326 c0 -8 5 -18 10 -21 6 -3 10 3 10 14 0 12 -4 21 -10 21 -5
0 -10 -6 -10 -14z"/>
<path d="M2256 1322 c-3 -6 -1 -14 5 -17 14 -9 20 -2 10 14 -6 8 -11 9 -15 3z"/>
<path d="M2117 1303 c-13 -12 -7 -25 9 -19 8 3 12 2 9 -3 -3 -5 -1 -12 4 -15
5 -3 11 3 14 13 3 12 -1 22 -10 25 -18 7 -18 7 -26 -1z"/>
<path d="M2046 1211 c-25 -27 -17 -56 14 -56 19 0 26 6 27 25 3 25 3 25 -7 3
-10 -24 -40 -32 -40 -10 0 7 7 23 16 35 19 27 13 29 -10 3z"/>
<path d="M2136 1167 c-15 -37 -59 -77 -85 -77 -13 -1 -12 -3 4 -16 13 -10 33
-14 56 -11 26 3 42 0 54 -12 14 -12 16 -12 9 -1 -4 8 -9 41 -10 72 -1 52 1 57
15 46 10 -8 9 -4 -3 10 -11 12 -21 22 -22 22 -2 0 -10 -15 -18 -33z"/>
<path d="M2279 1185 c-1 -6 0 -18 1 -29 1 -11 -3 -15 -9 -12 -7 4 -11 -1 -11
-14 0 -29 23 -20 34 13 7 19 6 31 -2 39 -7 7 -13 8 -13 3z"/>
<path d="M1860 950 c-13 -8 -13 -10 2 -10 9 0 20 5 23 10 8 13 -5 13 -25 0z"/>
<path d="M2282 3345 c-17 -37 -14 -45 4 -12 9 16 14 31 11 33 -2 2 -9 -7 -15
-21z"/>
<path d="M2215 3266 c19 -14 19 -15 0 -37 l-20 -22 23 12 c12 6 22 17 22 24 0
15 -20 37 -34 37 -5 0 -1 -6 9 -14z"/>
<path d="M2172 3220 c-7 -11 -12 -25 -12 -32 1 -7 8 0 16 15 18 33 14 46 -4
17z"/>
<path d="M2262 3178 c-15 -42 -8 -48 12 -9 18 34 19 41 8 41 -4 0 -13 -14 -20
-32z"/>
<path d="M2304 3186 c0 -11 -4 -30 -9 -41 -4 -11 -5 -17 0 -13 4 4 15 2 24 -5
14 -10 14 -10 3 4 -9 12 -10 24 -3 42 7 18 6 27 -2 30 -7 2 -12 -5 -13 -17z"/>
<path d="M2194 3189 c-3 -6 -2 -15 4 -21 6 -6 11 -2 15 11 5 22 -7 29 -19 10z"/>
<path d="M2335 3180 c-3 -5 -1 -18 4 -28 6 -11 8 -22 6 -26 -3 -3 0 -2 6 3 8
6 8 15 0 29 -6 10 -7 22 -4 26 3 3 4 6 0 6 -3 0 -9 -4 -12 -10z"/>
<path d="M2375 3150 c-9 -18 -14 -34 -11 -37 2 -3 12 9 21 27 9 18 14 34 11
37 -2 3 -12 -9 -21 -27z"/>
<path d="M2142 3148 c-14 -18 -42 -75 -42 -85 1 -4 10 9 21 30 16 31 24 37 42
32 22 -6 22 -6 2 10 -19 16 -19 16 10 10 23 -5 26 -4 15 4 -20 14 -35 14 -48
-1z"/>
<path d="M2405 3149 c-4 -6 -1 -15 6 -20 21 -13 31 -11 27 8 -4 20 -24 28 -33
12z m25 -9 c0 -5 -2 -10 -4 -10 -3 0 -8 5 -11 10 -3 6 -1 10 4 10 6 0 11 -4
11 -10z"/>
<path d="M2235 3123 c13 -13 115 -47 121 -40 3 3 -19 13 -48 22 -29 10 -60 20
-68 23 -10 3 -12 2 -5 -5z"/>
<path d="M1045 3110 c3 -5 8 -10 11 -10 2 0 4 5 4 10 0 6 -5 10 -11 10 -5 0
-7 -4 -4 -10z"/>
<path d="M2390 3108 c0 -9 5 -20 11 -23 17 -11 18 -2 3 19 -12 17 -14 17 -14
4z"/>
<path d="M2220 3100 c0 -5 28 -18 62 -29 34 -12 58 -17 53 -12 -15 15 -115 50
-115 41z"/>
<path d="M1195 3080 c8 -13 -20 -42 -30 -32 -4 4 -2 -3 4 -15 15 -28 35 -30
26 -3 -4 13 -1 22 9 26 21 8 21 34 0 34 -8 0 -12 -5 -9 -10z"/>
<path d="M2380 3065 c7 -9 15 -13 17 -11 7 7 -7 26 -19 26 -6 0 -6 -6 2 -15z"/>
<path d="M2670 3070 c0 -5 5 -10 11 -10 5 0 7 5 4 10 -3 6 -8 10 -11 10 -2 0
-4 -4 -4 -10z"/>
<path d="M2067 3005 c-14 -25 -22 -45 -18 -45 4 0 17 20 29 45 12 25 20 45 18
45 -2 0 -16 -20 -29 -45z"/>
<path d="M1619 3013 c-13 -16 -12 -17 4 -4 9 7 17 15 17 17 0 8 -8 3 -21 -13z"/>
<path d="M2340 2950 c-6 -11 -8 -20 -6 -20 3 0 10 9 16 20 6 11 8 20 6 20 -3
0 -10 -9 -16 -20z"/>
<path d="M2070 2947 c0 -3 28 -16 63 -30 34 -14 79 -33 100 -41 20 -9 37 -13
37 -9 0 5 -37 22 -83 40 -114 45 -117 46 -117 40z"/>
<path d="M2530 2910 c0 -3 12 -19 28 -36 15 -17 32 -40 39 -50 10 -17 12 -15
11 16 0 19 -2 27 -5 17 -4 -16 -7 -15 -19 8 -18 36 -18 40 4 24 15 -12 15 -11
-1 8 -17 19 -57 28 -57 13z"/>
<path d="M2181 2857 c46 -23 88 -40 94 -38 5 3 2 7 -5 9 -8 3 -21 9 -28 15
-15 12 -122 57 -136 57 -5 0 29 -19 75 -43z"/>
<path d="M2620 2843 c0 -4 5 -15 10 -23 8 -13 10 -13 10 2 0 9 -4 20 -10 23
-5 3 -10 3 -10 -2z"/>
<path d="M1880 2816 c0 -2 7 -7 16 -10 8 -3 12 -2 9 4 -6 10 -25 14 -25 6z"/>
<path d="M1135 2650 c-3 -5 -1 -10 4 -10 6 0 11 5 11 10 0 6 -2 10 -4 10 -3 0
-8 -4 -11 -10z"/>
<path d="M707 2314 c5 -13 3 -15 -7 -9 -9 6 -11 4 -6 -4 5 -7 10 -10 13 -7 3
2 18 -10 33 -27 19 -21 32 -29 39 -22 6 7 -5 23 -35 48 -25 22 -41 31 -37 21z"/>
<path d="M750 1991 c-35 -10 -13 -19 45 -19 l50 0 -34 14 c-18 8 -34 14 -35
13 0 -1 -12 -4 -26 -8z"/>
<path d="M825 1930 c-3 -5 -1 -10 4 -10 6 0 11 5 11 10 0 6 -2 10 -4 10 -3 0
-8 -4 -11 -10z"/>
<path d="M955 1910 c3 -5 10 -10 16 -10 5 0 9 5 9 10 0 6 -7 10 -16 10 -8 0
-12 -4 -9 -10z"/>
<path d="M2580 695 c-7 -9 -11 -18 -8 -20 3 -3 11 1 18 10 7 9 11 18 8 20 -3
3 -11 -1 -18 -10z"/>
</g>
</svg>
